:FULLY-SPECIFIED
:FORCE-ALL-JOINTS-BE-3DOF
:DEGREES
243
root 9.19908 16.24 -2.52989 10.0198 -4.61725 -3.62515
lfemur -46.8655 9.60203 -21.7008
ltibia 42.8981 -0 0
lfoot -5.39497 4.72696 -0.00886685
ltoes -2.06031 0 0
rfemur 18.5149 3.65938 23.5393
rtibia 12.9938 -0 0
rfoot 7.08552 4.27956 0.0346104
rtoes -17.5287 0 0
lowerback -7.02155 2.0009 0.574295
upperback -2.61913 2.58211 2.31064
thorax 1.14811 1.29811 2.25659
lowerneck -18.8175 -6.15713 -14.1385
upperneck 17.0132 -7.78373 15.1258
head 9.67896 -3.00685 6.5865
lclavicle 1.03513e-14 1.19271e-14 0
lhumerus -47.4497 -4.94463 88.9061
lradius 19.648 -0 0
lwrist -6.18791 0 0
lhand -7.41661 -23.4505 0.00072158
lfingers 7.12502 0 0
lthumb 18.4701 5.69275 0.000728279
rclavicle 1.03513e-14 1.19271e-14 0
rhumerus -45.9879 9.0094 -87.5148
rradius 43.7078 -0 0
rwrist -23.7793 0 0
rhand -30.7887 -21.5974 0.00784652
rfingers 7.12502 0 0
rthumb -4.079 -51.5363 0.00747205
244
root 9.23821 16.2697 -2.3725 9.97501 -4.9226 -3.16051
lfemur -46.0603 9.6176 -22.2864
ltibia 42.8246 -0 0
lfoot -6.12694 4.82336 -0.00810225
ltoes -1.7245 0 0
rfemur 16.4442 3.08734 22.5229
rtibia 17.5488 -0 0
rfoot 7.79076 4.61694 0.0372446
rtoes -16.7556 0 0
lowerback -6.84282 2.02178 0.258796
upperback -2.78124 2.63904 2.15891
thorax 0.872885 1.32997 2.26945
lowerneck -18.6574 -6.083 -14.1128
upperneck 17.1242 -7.69062 14.996
head 9.66418 -2.98062 6.55235
lclavicle 2.8979e-15 7.55382e-15 0
lhumerus -47.1041 -4.7939 88.652
lradius 19.6766 -0 0
lwrist -6.69478 0 0
lhand -7.36413 -23.1925 0.000851102
lfingers 7.12502 0 0
lthumb 18.5206 5.94609 0.000874798
rclavicle 2.8979e-15 7.55382e-15 0
rhumerus -46.2701 8.74405 -87.3066
rradius 42.8181 -0 0
rwrist -23.2705 0 0
rhand -30.2124 -21.5454 -0.00150218
rfingers 7.12502 0 0
rthumb -3.52252 -51.494 -0.0015687
245
root 9.27734 16.2993 -2.21512 9.9243 -5.24725 -2.69026
lfemur -45.2008 9.61599 -22.8604
ltibia 42.6536 -0 0
lfoot -6.83738 4.97148 -0.00498727
ltoes -1.40108 0 0
rfemur 14.2514 2.47925 21.5158
rtibia 22.2744 -0 0
rfoot 8.40744 4.92136 0.0297459
rtoes -16.0266 0 0
lowerback -6.67938 2.04401 -0.0588056
upperback -2.9295 2.69547 2.00865
thorax 0.620351 1.3618 2.2864
lowerneck -18.5002 -6.00048 -14.0742
upperneck 17.2343 -7.58577 14.8553
head 9.64698 -2.94932 6.51383
lclavicle -4.5555e-15 3.18055e-15 0
lhumerus -46.7322 -4.69351 88.4404
lradius 19.7469 -0 0
lwrist -7.085 0 0
lhand -7.32211 -22.9393 0.000644352
lfingers 7.12502 0 0
lthumb 18.561 6.19546 0.000688005
rclavicle -4.5555e-15 3.18055e-15 0
rhumerus -46.5246 8.51494 -87.0993
rradius 41.9615 -0 0
rwrist -22.7426 0 0
rhand -29.6507 -21.714 -0.00980168
rfingers 7.12502 0 0
rthumb -2.98009 -51.6717 -0.00951858
246
root 9.31647 16.3289 -2.05774 9.85685 -5.56622 -2.23115
lfemur -44.3008 9.59592 -23.408
ltibia 42.4051 -0 0
lfoot -7.49827 5.14423 -0.00138152
ltoes -1.0588 0 0
rfemur 12.1134 1.88649 20.5761
rtibia 26.8097 -0 0
rfoot 8.98228 5.05572 0.015469
rtoes -15.5101 0 0
lowerback -6.52798 2.0579 -0.37242
upperback -3.03522 2.73813 1.86844
thorax 0.418587 1.38644 2.31223
lowerneck -18.4158 -5.91994 -14.0214
upperneck 17.3498 -7.47824 14.7148
head 9.64451 -2.91321 6.47337
lclavicle -1.20089e-14 -1.19271e-15 0
lhumerus -46.2961 -4.67321 88.2921
lradius 19.8449 -0 0
lwrist -7.30521 0 0
lhand -7.31363 -22.7215 0.00026034
lfingers 7.12502 0 0
lthumb 18.5692 6.41237 0.000304575
rclavicle -1.20089e-14 -1.19271e-15 0
rhumerus -46.7161 8.34167 -86.921
rradius 41.1914 -0 0
rwrist -22.2706 0 0
rhand -29.2487 -22.0564 -0.0103848
rfingers 7.12502 0 0
rthumb -2.59192 -52.0205 -0.0100043
247
root 9.3556 16.3586 -1.90036 9.76238 -5.85443 -1.79992
lfemur -43.374 9.55533 -23.9149
ltibia 42.0992 0 0
lfoot -8.08158 5.31458 0
ltoes -0.666402 0 0
rfemur 10.2037 1.37025 19.7541
rtibia 30.7944 0 0
rfoot 9.56213 4.88299 0
rtoes -15.3751 0 0
lowerback -6.38529 2.05378 -0.675997
upperback -3.06967 2.75391 1.74692
thorax 0.295667 1.39674 2.35183
lowerneck -18.4737 -5.85161 -13.953
upperneck 17.477 -7.37709 14.5853
head 9.67392 -2.87252 6.43342
lclavicle -1.94623e-14 -5.56597e-15 0
lhumerus -45.758 -4.76304 88.2269
lradius 19.9566 0 0
lwrist -7.30207 0 0
lhand -7.36173 -22.5698 0
lfingers 7.12502 0 0
lthumb 18.5229 6.56827 0
rclavicle -1.94623e-14 -5.56597e-15 0
rhumerus -46.8088 8.24347 -86.8
rradius 40.5611 0 0
rwrist -21.9297 0 0
rhand -29.1518 -22.5261 0
rfingers 7.12502 0 0
rthumb -2.49833 -52.4912 0
248
root 9.3887 16.3907 -1.76269 9.63292 -6.12813 -1.37874
lfemur -42.3886 9.47444 -24.3895
ltibia 41.6926 -0 0
lfoot -8.57644 5.51179 -0.00116765
ltoes -0.15967 0 0
rfemur 8.49573 0.942416 19.0143
rtibia 34.2772 -0 0
rfoot 10.2346 4.39312 -0.0219614
rtoes -15.7877 0 0
lowerback -6.25041 2.03371 -0.988589
upperback -3.01337 2.74679 1.63916
thorax 0.27009 1.39441 2.41152
lowerneck -18.7214 -5.7987 -13.8605
upperneck 17.6238 -7.28378 14.464
head 9.74652 -2.82577 6.39143
lclavicle -1.86558e-14 -7.48756e-15 0
lhumerus -45.0914 -5.00565 88.2728
lradius 20.0921 -0 0
lwrist -6.98567 0 0
lhand -7.47839 -22.4961 4.09639e-05
lfingers 7.12502 0 0
lthumb 18.4106 6.65232 -3.5105e-05
rclavicle -1.86558e-14 -7.48756e-15 0
rhumerus -46.769 8.23818 -86.7543
rradius 40.0683 -0 0
rwrist -21.7214 0 0
rhand -29.4515 -23.3236 0.0224856
rfingers 7.12502 0 0
rthumb -2.7877 -53.2826 0.0215211
249
root 9.4218 16.4227 -1.62502 9.47507 -6.41023 -0.950345
lfemur -41.327 9.35126 -24.8467
ltibia 41.1607 -0 0
lfoot -9.00311 5.76334 -0.00237952
ltoes 0.449236 -0 0
rfemur 6.84237 0.562164 18.3042
rtibia 37.5563 -0 0
rfoot 10.9799 3.69348 -0.0496309
rtoes -16.6462 0 0
lowerback -6.12572 2.00573 -1.31889
upperback -2.88533 2.72837 1.53729
thorax 0.323088 1.38541 2.48872
lowerneck -19.1125 -5.75316 -13.7434
upperneck 17.7868 -7.19129 14.3418
head 9.85084 -2.77243 6.34498
lclavicle -1.78492e-14 -9.40915e-15 0
lhumerus -44.3218 -5.38759 88.416
lradius 20.2646 -0 0
lwrist -6.38069 0 0
lhand -7.64757 -22.4784 0.000253781
lfingers 7.12502 0 0
lthumb 18.2479 6.68516 0.000114647
rclavicle -1.78492e-14 -9.40915e-15 0
rhumerus -46.6182 8.3136 -86.7654
rradius 39.67 -0 0
rwrist -21.5858 0 0
rhand -30.0501 -24.5265 0.0460342
rfingers 7.12502 0 0
rthumb -3.36581 -54.4738 0.044022
250
root 9.4549 16.4548 -1.48735 9.30115 -6.68576 -0.532511
lfemur -40.224 9.20925 -25.2808
ltibia 40.5513 -0 0
lfoot -9.38024 6.0396 -0.00304495
ltoes 1.077 -0 0
rfemur 5.23466 0.218399 17.6445
rtibia 40.6453 -0 0
rfoot 11.6839 2.82361 -0.0685055
rtoes -17.7174 0 0
lowerback -6.0127 1.96909 -1.64535
upperback -2.71453 2.69692 1.44553
thorax 0.42682 1.36897 2.57493
lowerneck -19.5762 -5.70832 -13.6126
upperneck 17.9552 -7.09601 14.2199
head 9.96984 -2.71415 6.29674
lclavicle -1.70427e-14 -1.13307e-14 0
lhumerus -43.4886 -5.85454 88.614
lradius 20.4649 -0 0
lwrist -5.60572 0 0
lhand -7.85027 -22.4961 0.000427253
lfingers 7.12502 0 0
lthumb 18.0528 6.68552 0.000267556
rclavicle -1.70427e-14 -1.13307e-14 0
rhumerus -46.4035 8.44399 -86.8059
rradius 39.3581 -0 0
rwrist -21.5062 0 0
rhand -30.8092 -25.9034 0.0553338
rfingers 7.12502 0 0
rthumb -4.09878 -55.8363 0.0528865
251
root 9.48799 16.4869 -1.34969 9.12389 -6.94001 -0.143291
lfemur -39.1148 9.07105 -25.6851
ltibia 39.9123 -0 0
lfoot -9.72648 6.3109 -0.00289113
ltoes 1.64032 -0 0
rfemur 3.66378 -0.0990342 17.0565
rtibia 43.5577 -0 0
rfoot 12.2317 1.82338 -0.0685117
rtoes -18.7679 0 0
lowerback -5.91284 1.92289 -1.94641
upperback -2.52996 2.65059 1.36809
thorax 0.553442 1.34436 2.66165
lowerneck -20.0416 -5.65788 -13.4793
upperneck 18.1183 -6.99439 14.0992
head 10.0865 -2.65263 6.24933
lclavicle -1.62362e-14 -1.32523e-14 0
lhumerus -42.6312 -6.35108 88.8261
lradius 20.6834 -0 0
lwrist -4.7793 0 0
lhand -8.06752 -22.5288 0.000414164
lfingers 7.12502 0 0
lthumb 17.8438 6.67214 0.000287498
rclavicle -1.62362e-14 -1.32523e-14 0
rhumerus -46.1721 8.6035 -86.8489
rradius 39.1248 -0 0
rwrist -21.4658 0 0
rhand -31.5894 -27.2228 0.0447876
rfingers 7.12502 0 0
rthumb -4.8522 -57.1409 0.0427886
